

 
http://www.imdb.com/title/tt1288558/


Plot: Five friends head to a remote cabin, where the discovery of a Book of the Dead leads them to unwittingly summon up demons living in the nearby woods. The evil presence possesses them until only one is left to fight for survival. 



Director:
 Fede Alvarez 

Writers:
 Fede Alvarez (screenplay), Sam Raimi, 1 more credit ┬╗ 

Stars:
 Jane Levy, Shiloh Fernandez, Jessica Lucas

Genres:
  Horror 

Country:
 USA 

Language:
 English 


Format                           : AVI
 Format/Info                      : Audio Video Interleave
 File size                        : 975 MiB
 Duration                         : 1h 24mn
 Overall bit rate                 : 1 613 Kbps
 Writing library                  : VirtualDub build 35390/release

 Video
 ID                               : 0
 Format                           : MPEG-4 Visual
 Format profile                   : Advanced Simple@L5
 Format settings, BVOP            : Yes
 Format settings, QPel            : No
 Format settings, GMC             : No warppoints
 Format settings, Matrix          : Default (H.263)
 Muxing mode                      : Packed bitstream
 Codec ID                         : XVID
 Codec ID/Hint                    : XviD
 Duration                         : 1h 24mn
 Bit rate                         : 1 475 Kbps
 Width                            : 720 pixels
 Height                           : 304 pixels
 Display aspect ratio             : 2.35:1
 Frame rate                       : 24.000 fps
 Color space                      : YUV
 Chroma subsampling               : 4:2:0
 Bit depth                        : 8 bits
 Scan type                        : Progressive
 Bits/(Pixel*Frame)               : 0.281
 Stream size                      : 892 MiB (91%)
 Writing library                  : XviD 1.2.1 (UTC 2008-12-04)

 Audio
 ID                               : 1
 Format                           : MPEG Audio
 Format version                   : Version 1
 Format profile                   : Layer 3
 Mode                             : Joint stereo
 Mode extension                   : MS Stereo
 Codec ID                         : 55
 Codec ID/Hint                    : MP3
 Duration                         : 1h 24mn
 Bit rate mode                    : Constant
 Bit rate                         : 128 Kbps
 Channel(s)                       : 2 channels
 Sampling rate                    : 48.0 KHz
 Stream size                      : 77.4 MiB (8%)
 Alignment                        : Split accross interleaves
 Interleave, duration             : 42 ms (1.00 video frame)
 Interleave, preload duration     : 500 ms
 Writing library                  : LAME




    	http://www.shotpix.com/images/63863661886184291564.png
    	http://www.shotpix.com/images/10438824824926443005.png
    	http://www.shotpix.com/images/41910738727422681551.png
    	http://www.shotpix.com/images/08075634673819416945.png
    	http://www.shotpix.com/images/50473209265654699635.png